<svg width="49" height="49" viewBox="0 0 49 49" fill="none" xmlns="http://www.w3.org/2000/svg">
<g clip-path="url(#clip0_190_573)">
<path d="M48.8468 42.7552L47.8064 38.8724C47.671 38.3669 47.1513 38.0666 46.646 38.2024C46.1405 38.3379 45.8405 38.8574 45.976 39.3629L46.4314 41.0627L39.7829 37.2702V21.5079C39.7829 21.1688 39.6017 20.8554 39.3077 20.6865L25.5702 12.7884V5.28289L26.7952 6.50794C27.1653 6.87794 27.7652 6.87794 28.1353 6.50794C28.5053 6.13793 28.5053 5.53797 28.1353 5.16787L25.2928 2.32532C24.9223 1.95342 24.3158 1.9609 23.9527 2.32532L21.1101 5.16787C20.7401 5.53787 20.7401 6.13784 21.1101 6.50794C21.4801 6.87785 22.0801 6.87785 22.4502 6.50794L23.6753 5.28289V12.7901L10.03 20.6878C9.7373 20.8572 9.55708 21.1698 9.55708 21.5079V37.117L2.81503 40.9482L3.27126 39.2453C3.40666 38.7398 3.10668 38.2202 2.60118 38.0848C2.09559 37.9492 1.57616 38.2493 1.44076 38.7548L0.400385 42.6387C0.268681 43.1305 0.563168 43.6777 1.0988 43.8066L4.95339 44.8395C5.46296 44.976 5.97955 44.6708 6.1139 44.1695C6.2494 43.6641 5.94942 43.1446 5.44392 43.0091L3.79969 42.5685L10.4911 38.7661L24.2017 46.8396C24.4951 47.0124 24.8596 47.0147 25.1557 46.844L28.6314 44.8402C29.0848 44.5789 29.2404 43.9995 28.9791 43.5462C28.7177 43.0929 28.1383 42.9373 27.6849 43.1986L24.6876 44.9266L12.3919 37.6861L24.5631 30.7698L36.9688 37.8465L35.0708 38.9407C34.6175 39.2021 34.4619 39.7815 34.7232 40.2348C34.9846 40.6882 35.5641 40.8439 36.0173 40.5824L38.876 38.9344L45.4501 42.6846L43.8036 43.1257C43.2981 43.2611 42.9981 43.7806 43.1336 44.2861C43.2684 44.7891 43.7862 45.0924 44.294 44.9561L48.0915 43.9387C48.6338 43.843 48.9922 43.298 48.8468 42.7552ZM37.8878 36.1891L25.5701 29.1626V14.9743L37.8878 22.0561V36.1891ZM11.4521 22.0543L23.6751 14.9798V29.0945L11.4521 36.0402V22.0543Z" fill="white"/>
<path d="M31.824 42.791C32.3473 42.791 32.7715 42.3667 32.7715 41.8434C32.7715 41.3201 32.3473 40.8959 31.824 40.8959C31.3007 40.8959 30.8765 41.3201 30.8765 41.8434C30.8765 42.3667 31.3007 42.791 31.824 42.791Z" fill="#0E73BC"/>
</g>
<defs>
<clipPath id="clip0_190_573">
<rect width="48.5101" height="48.5101" fill="white" transform="translate(0.369141 0.254822)"/>
</clipPath>
</defs>
</svg>
