<svg width="50" height="49" viewBox="0 0 50 49" fill="none" xmlns="http://www.w3.org/2000/svg">
<g clip-path="url(#clip0_190_582)">
<path d="M49.0719 42.7552L48.0315 38.8724C47.8961 38.3669 47.3764 38.0666 46.8711 38.2024C46.3656 38.3379 46.0656 38.8574 46.2011 39.3629L46.6565 41.0627L40.008 37.2702V21.5079C40.008 21.1688 39.8268 20.8554 39.5327 20.6865L25.7953 12.7884V5.28289L27.0203 6.50794C27.3904 6.87794 27.9903 6.87794 28.3604 6.50794C28.7304 6.13793 28.7304 5.53797 28.3604 5.16787L25.5179 2.32532C25.1474 1.95342 24.5409 1.9609 24.1778 2.32532L21.3352 5.16787C20.9652 5.53787 20.9652 6.13784 21.3352 6.50794C21.7052 6.87785 22.3052 6.87785 22.6753 6.50794L23.9004 5.28289V12.7901L10.2551 20.6878C9.9624 20.8572 9.78218 21.1698 9.78218 21.5079V37.117L3.04013 40.9482L3.49636 39.2453C3.63176 38.7398 3.33178 38.2202 2.82628 38.0848C2.32068 37.9492 1.80125 38.2493 1.66586 38.7548L0.625483 42.6387C0.493778 43.1305 0.788266 43.6777 1.3239 43.8066L5.17848 44.8395C5.68806 44.976 6.20464 44.6708 6.339 44.1695C6.4745 43.6641 6.17451 43.1446 5.66901 43.0091L4.02479 42.5685L10.7162 38.7661L24.4268 46.8396C24.7202 47.0124 25.0847 47.0147 25.3808 46.844L28.8565 44.8402C29.3099 44.5789 29.4655 43.9995 29.2042 43.5462C28.9428 43.0929 28.3634 42.9373 27.91 43.1986L24.9127 44.9266L12.617 37.6861L24.7882 30.7698L37.1939 37.8465L35.2959 38.9407C34.8425 39.2021 34.687 39.7815 34.9483 40.2348C35.2097 40.6882 35.7892 40.8439 36.2424 40.5824L39.1011 38.9344L45.6752 42.6846L44.0287 43.1257C43.5232 43.2611 43.2232 43.7806 43.3587 44.2861C43.4935 44.7891 44.0113 45.0924 44.5191 44.9561L48.3166 43.9387C48.8589 43.843 49.2173 43.298 49.0719 42.7552ZM38.1129 36.1891L25.7952 29.1626V14.9743L38.1129 22.0561V36.1891ZM11.6772 22.0543L23.9002 14.9798V29.0945L11.6772 36.0402V22.0543Z" fill="white"/>
<path d="M32.0491 42.791C32.5724 42.791 32.9966 42.3667 32.9966 41.8434C32.9966 41.3201 32.5724 40.8959 32.0491 40.8959C31.5258 40.8959 31.1016 41.3201 31.1016 41.8434C31.1016 42.3667 31.5258 42.791 32.0491 42.791Z" fill="#0E73BC"/>
</g>
<defs>
<clipPath id="clip0_190_582">
<rect width="48.5101" height="48.5101" fill="white" transform="translate(0.594238 0.254822)"/>
</clipPath>
</defs>
</svg>
