<svg width="62" height="64" viewBox="0 0 62 64" fill="none" xmlns="http://www.w3.org/2000/svg">
<g filter="url(#filter0_d_190_623)">
<ellipse cx="31" cy="27.6108" rx="17" ry="17.6108" fill="white"/>
</g>
<g clip-path="url(#clip0_190_623)">
<path d="M34.481 20.3593H28.519C26.5786 20.3593 25 21.9945 25 24.0047V30.181C25 32.191 26.5786 33.8263 28.519 33.8263H34.4811C36.4214 33.8263 38 32.191 38 30.181V24.0047C38 21.9945 36.4214 20.3593 34.481 20.3593V20.3593ZM37.2379 30.181C37.2379 31.7557 36.0012 33.0368 34.481 33.0368H28.519C26.9988 33.0368 25.7621 31.7557 25.7621 30.181V24.0047C25.7621 22.4299 26.9988 21.1487 28.519 21.1487H34.4811C36.0012 21.1487 37.2379 22.4299 37.2379 24.0047V30.181Z" fill="black"/>
<path d="M31.4999 23.4105C29.5399 23.4105 27.9453 25.0624 27.9453 27.0928C27.9453 29.1233 29.5399 30.7751 31.4999 30.7751C33.4599 30.7751 35.0545 29.1233 35.0545 27.0928C35.0545 25.0624 33.4599 23.4105 31.4999 23.4105ZM31.4999 29.9856C29.9602 29.9856 28.7074 28.6879 28.7074 27.0928C28.7074 25.4978 29.9602 24.2 31.4999 24.2C33.0397 24.2 34.2924 25.4978 34.2924 27.0928C34.2924 28.6879 33.0397 29.9856 31.4999 29.9856Z" fill="black"/>
<path d="M35.1397 22.1028C34.5605 22.1028 34.0894 22.5909 34.0894 23.1909C34.0894 23.7909 34.5605 24.279 35.1397 24.279C35.7189 24.279 36.1901 23.7909 36.1901 23.1909C36.1901 22.5908 35.7189 22.1028 35.1397 22.1028ZM35.1397 23.4894C34.9808 23.4894 34.8515 23.3555 34.8515 23.1909C34.8515 23.0262 34.9808 22.8923 35.1397 22.8923C35.2987 22.8923 35.428 23.0262 35.428 23.1909C35.428 23.3555 35.2987 23.4894 35.1397 23.4894Z" fill="black"/>
</g>
<defs>
<filter id="filter0_d_190_623" x="0" y="0" width="62" height="63.2216" filterUnits="userSpaceOnUse" color-interpolation-filters="sRGB">
<feFlood flood-opacity="0" result="BackgroundImageFix"/>
<feColorMatrix in="SourceAlpha" type="matrix" values="0 0 0 0 0 0 0 0 0 0 0 0 0 0 0 0 0 0 127 0" result="hardAlpha"/>
<feOffset dy="4"/>
<feGaussianBlur stdDeviation="7"/>
<feColorMatrix type="matrix" values="0 0 0 0 0 0 0 0 0 0 0 0 0 0 0 0 0 0 0.15 0"/>
<feBlend mode="normal" in2="BackgroundImageFix" result="effect1_dropShadow_190_623"/>
<feBlend mode="normal" in="SourceGraphic" in2="effect1_dropShadow_190_623" result="shape"/>
</filter>
<clipPath id="clip0_190_623">
<rect width="13" height="13.4671" fill="white" transform="translate(25 20.3593)"/>
</clipPath>
</defs>
</svg>
