<svg width="51" height="52" viewBox="0 0 51 52" fill="none" xmlns="http://www.w3.org/2000/svg">
<g clip-path="url(#clip0_190_554)">
<path d="M4.76753 21.0845C4.9901 21.0858 5.20404 20.9984 5.36206 20.8417L8.71158 17.4922C9.03993 17.1638 9.03993 16.6314 8.71158 16.3031C8.38322 15.9747 7.85085 15.9747 7.5225 16.3031L4.17299 19.6526C4.01446 19.8098 3.92529 20.0239 3.92529 20.2471C3.92529 20.4704 4.01446 20.6844 4.17299 20.8417C4.33102 20.9984 4.54495 21.0858 4.76753 21.0845Z" fill="white"/>
<path d="M4.76753 26.1088C4.9901 26.1101 5.20403 26.0227 5.36206 25.8659L13.7358 17.4922C14.0642 17.1638 14.0642 16.6314 13.7358 16.3031C13.4075 15.9747 12.8751 15.9747 12.5468 16.3031L4.17299 24.6769C4.01446 24.8341 3.92529 25.0481 3.92529 25.2714C3.92529 25.4947 4.01446 25.7087 4.17299 25.8659C4.33102 26.0227 4.54495 26.1101 4.76753 26.1088Z" fill="white"/>
<path d="M48.3111 0.987427H26.5393C25.1519 0.987427 24.0271 2.11215 24.0271 3.49956V12.7107H4.76745C2.4551 12.7107 0.580566 14.5852 0.580566 16.8976V38.6694C0.580566 40.9818 2.4551 42.8563 4.76745 42.8563H13.9786V46.2058H11.4665C10.0791 46.2058 8.95434 47.3305 8.95434 48.7179C8.95434 50.1054 10.0791 51.2301 11.4665 51.2301H48.3111C49.6985 51.2301 50.8232 50.1054 50.8232 48.7179V3.49956C50.8232 2.11215 49.6985 0.987427 48.3111 0.987427ZM4.76745 14.3855H34.913C36.3004 14.3855 37.4252 15.5102 37.4252 16.8976V36.9947H2.25532V16.8976C2.25532 15.5102 3.38004 14.3855 4.76745 14.3855ZM2.25532 38.6694H37.4252C37.4252 40.0568 36.3004 41.1815 34.913 41.1815H4.76745C3.38004 41.1815 2.25532 40.0568 2.25532 38.6694ZM15.6534 42.8563H24.0271V46.2058H15.6534V42.8563ZM26.5393 49.5553H11.4665C11.004 49.5553 10.6291 49.1804 10.6291 48.7179C10.6291 48.2555 11.004 47.8806 11.4665 47.8806H28.214C28.6765 47.8806 29.0514 48.2555 29.0514 48.7179C29.0514 49.1804 28.6765 49.5553 28.214 49.5553H26.5393ZM49.1485 48.7179C49.1485 49.1804 48.7735 49.5553 48.3111 49.5553H30.5754C30.8469 48.7876 30.7293 47.936 30.2602 47.2704C29.791 46.6049 29.0283 46.2081 28.214 46.2058H25.7019V42.8563H34.913C37.2254 42.8563 39.0999 40.9818 39.0999 38.6694V16.8976C39.0999 14.5852 37.2254 12.7107 34.913 12.7107H25.7019V3.49956C25.7019 3.03709 26.0768 2.66218 26.5393 2.66218H48.3111C48.7735 2.66218 49.1485 3.03709 49.1485 3.49956V48.7179Z" fill="white"/>
<path d="M45.7988 5.17438H29.0512C28.1263 5.17438 27.3765 5.92419 27.3765 6.84913V8.52389C27.3765 9.44883 28.1263 10.1986 29.0512 10.1986H45.7988C46.7237 10.1986 47.4735 9.44883 47.4735 8.52389V6.84913C47.4735 5.92419 46.7237 5.17438 45.7988 5.17438ZM29.0512 8.52389V6.84913H45.7988V8.52389H29.0512Z" fill="white"/>
<path d="M44.124 17.735C45.5114 17.735 46.6361 16.6102 46.6361 15.2228C46.6361 13.8354 45.5114 12.7107 44.124 12.7107C42.7365 12.7107 41.6118 13.8354 41.6118 15.2228C41.6118 16.6102 42.7365 17.735 44.124 17.735ZM44.124 14.3854C44.5864 14.3854 44.9613 14.7604 44.9613 15.2228C44.9613 15.6853 44.5864 16.0602 44.124 16.0602C43.6615 16.0602 43.2866 15.6853 43.2866 15.2228C43.2866 14.7604 43.6615 14.3854 44.124 14.3854Z" fill="white"/>
<path d="M46.6361 21.9219C46.6361 20.5344 45.5114 19.4097 44.124 19.4097C42.7365 19.4097 41.6118 20.5344 41.6118 21.9219C41.6118 23.3093 42.7365 24.434 44.124 24.434C45.5114 24.434 46.6361 23.3093 46.6361 21.9219ZM44.124 22.7592C43.6615 22.7592 43.2866 22.3843 43.2866 21.9219C43.2866 21.4594 43.6615 21.0845 44.124 21.0845C44.5864 21.0845 44.9613 21.4594 44.9613 21.9219C44.9613 22.3843 44.5864 22.7592 44.124 22.7592Z" fill="white"/>
<path d="M33.2383 44.5311C32.7758 44.5311 32.4009 44.906 32.4009 45.3684V47.0432C32.4009 47.5057 32.7758 47.8806 33.2383 47.8806C33.7007 47.8806 34.0756 47.5057 34.0756 47.0432V45.3684C34.0756 44.906 33.7007 44.5311 33.2383 44.5311Z" fill="white"/>
<path d="M36.5879 44.5311C36.1254 44.5311 35.7505 44.906 35.7505 45.3684V47.0432C35.7505 47.5057 36.1254 47.8806 36.5879 47.8806C37.0503 47.8806 37.4252 47.5057 37.4252 47.0432V45.3684C37.4252 44.906 37.0503 44.5311 36.5879 44.5311Z" fill="white"/>
<path d="M39.9375 44.5311C39.475 44.5311 39.1001 44.906 39.1001 45.3684V47.0432C39.1001 47.5057 39.475 47.8806 39.9375 47.8806C40.3999 47.8806 40.7749 47.5057 40.7749 47.0432V45.3684C40.7749 44.906 40.3999 44.5311 39.9375 44.5311Z" fill="white"/>
<path d="M43.2866 44.5311C42.8241 44.5311 42.4492 44.906 42.4492 45.3684V47.0432C42.4492 47.5057 42.8241 47.8806 43.2866 47.8806C43.7491 47.8806 44.124 47.5057 44.124 47.0432V45.3684C44.124 44.906 43.7491 44.5311 43.2866 44.5311Z" fill="white"/>
<path d="M46.6362 44.5311C46.1737 44.5311 45.7988 44.906 45.7988 45.3684V47.0432C45.7988 47.5057 46.1737 47.8806 46.6362 47.8806C47.0987 47.8806 47.4736 47.5057 47.4736 47.0432V45.3684C47.4736 44.906 47.0987 44.5311 46.6362 44.5311Z" fill="white"/>
</g>
<defs>
<clipPath id="clip0_190_554">
<rect width="50.2426" height="50.2426" fill="white" transform="translate(0.580566 0.987427)"/>
</clipPath>
</defs>
</svg>
