<svg width="48" height="48" viewBox="0 0 48 48" fill="none" xmlns="http://www.w3.org/2000/svg">
<g clip-path="url(#clip0_190_539)">
<path d="M34.035 0.720032H14.3962C12.5032 0.720032 10.9619 2.26135 10.9619 4.15429V44.0626C10.9619 45.9563 12.5032 47.4977 14.3962 47.4977H34.0342C35.9279 47.4977 37.4692 45.9563 37.4692 44.0634V4.15429C37.4692 2.26135 35.9279 0.720032 34.035 0.720032ZM12.5212 6.95705H35.91V36.5829H12.5212V6.95705ZM14.3962 2.27929H34.0342C35.0688 2.27929 35.91 3.1205 35.91 4.15429V5.39779H12.5212V4.15429C12.5212 3.1205 13.3624 2.27929 14.3962 2.27929ZM34.035 45.9384H14.3962C13.3624 45.9384 12.5212 45.0972 12.5212 44.0634V38.1421H35.91V44.0634C35.91 45.0972 35.0688 45.9384 34.035 45.9384Z" fill="white"/>
<path d="M24.2152 38.9218C22.4953 38.9218 21.0967 40.3204 21.0967 42.0403C21.0967 43.7601 22.4953 45.1588 24.2152 45.1588C25.935 45.1588 27.3337 43.7601 27.3337 42.0403C27.3337 40.3204 25.935 38.9218 24.2152 38.9218ZM24.2152 43.5995C23.3553 43.5995 22.6559 42.9002 22.6559 42.0403C22.6559 41.1803 23.3553 40.481 24.2152 40.481C25.0751 40.481 25.7744 41.1803 25.7744 42.0403C25.7744 42.9002 25.0751 43.5995 24.2152 43.5995Z" fill="white"/>
<path d="M21.097 4.61815H24.2155C24.6467 4.61815 24.9951 4.26966 24.9951 3.83853C24.9951 3.40739 24.6467 3.0589 24.2155 3.0589H21.097C20.6659 3.0589 20.3174 3.40739 20.3174 3.83853C20.3174 4.26966 20.6659 4.61815 21.097 4.61815Z" fill="white"/>
<path d="M26.554 4.61815H27.3337C27.7648 4.61815 28.1133 4.26966 28.1133 3.83853C28.1133 3.40739 27.7648 3.0589 27.3337 3.0589H26.554C26.1229 3.0589 25.7744 3.40739 25.7744 3.83853C25.7744 4.26966 26.1229 4.61815 26.554 4.61815Z" fill="white"/>
<path d="M44.9629 4.28215C44.658 3.97732 44.1653 3.97732 43.8605 4.28215C43.5556 4.58699 43.5556 5.07971 43.8605 5.38455C46.7731 8.29723 46.7731 13.0366 43.8605 15.9501C43.5556 16.2549 43.5556 16.7476 43.8605 17.0525C44.0125 17.2045 44.2121 17.2809 44.4117 17.2809C44.6112 17.2809 44.8108 17.2045 44.9629 17.0525C48.4836 13.5324 48.4836 7.80295 44.9629 4.28215Z" fill="white"/>
<path d="M41.6797 6.05657C41.3748 5.75173 40.8821 5.75173 40.5773 6.05657C40.2724 6.3614 40.2724 6.85413 40.5773 7.15896C41.5417 8.12336 42.0726 9.40819 42.0726 10.7757C42.0726 12.1431 41.5417 13.4272 40.5773 14.3916C40.2724 14.6964 40.2724 15.1891 40.5773 15.494C40.7293 15.646 40.9289 15.7224 41.1285 15.7224C41.328 15.7224 41.5276 15.646 41.6797 15.494C42.9388 14.2356 43.6318 12.5594 43.6318 10.7757C43.6318 8.99186 42.9395 7.31489 41.6797 6.05657Z" fill="white"/>
<path d="M4.57014 5.38455C4.87497 5.07971 4.87497 4.58699 4.57014 4.28215C4.2653 3.97732 3.77258 3.97732 3.46775 4.28215C-0.0530507 7.80295 -0.0530507 13.5317 3.46775 17.0525C3.61977 17.2045 3.81936 17.2809 4.01894 17.2809C4.21853 17.2809 4.41811 17.2045 4.57014 17.0525C4.87497 16.7476 4.87497 16.2549 4.57014 15.9501C1.65667 13.0374 1.65667 8.29801 4.57014 5.38455Z" fill="white"/>
<path d="M7.85341 5.84142C7.54857 5.53658 7.05585 5.53658 6.75102 5.84142C5.49192 7.09974 4.79883 8.77594 4.79883 10.5597C4.79883 12.3435 5.49192 14.0197 6.75102 15.2788C6.90304 15.4308 7.10263 15.5072 7.30221 15.5072C7.5018 15.5072 7.70138 15.4308 7.85341 15.2788C8.15824 14.974 8.15824 14.4812 7.85341 14.1764C6.88901 13.212 6.35808 11.9272 6.35808 10.5597C6.35808 9.19226 6.88823 7.90821 7.85341 6.94381C8.15746 6.63976 8.15746 6.14625 7.85341 5.84142Z" fill="white"/>
</g>
<defs>
<clipPath id="clip0_190_539">
<rect width="46.7776" height="46.7776" fill="white" transform="translate(0.826172 0.720032)"/>
</clipPath>
</defs>
</svg>
